<svg width="54" height="55" viewBox="0 0 54 55" fill="none" xmlns="http://www.w3.org/2000/svg">
<rect width="38.9687" height="39.9194" rx="9.62284" transform="matrix(0.970296 0.24192 -0.292374 0.956304 12.1416 0.236328)" fill="#B35714"/>
<path d="M13.3768 16.3633C14.9306 11.281 20.3705 8.20323 25.5273 9.48894L44.6644 14.2603C46.1545 14.6318 47.4578 15.327 48.5205 16.2505C51.1354 18.5227 52.2928 22.1769 51.188 25.7906L45.1435 45.5611C43.5896 50.6434 38.1497 53.7211 32.993 52.4354L13.8559 47.664C12.3658 47.2925 11.0624 46.5973 9.99972 45.6739C7.38484 43.4016 6.22745 39.7475 7.33228 36.1338L13.3768 16.3633Z" fill="#FFB580"/>
<path d="M30.3188 18.6335C30.3256 18.5982 30.3267 18.5641 30.3293 18.5292C30.1595 18.195 29.9564 17.8908 29.708 17.6427C29.6482 17.5829 29.5864 17.5254 29.5227 17.4701C29.1519 17.1475 28.7193 16.8984 28.2588 16.699C27.5956 16.4095 26.8644 16.2814 26.1251 16.2978L26.1157 16.298C26.1157 16.298 26.1103 16.298 26.1087 16.299C24.8374 16.4428 23.0069 17.2898 22.7447 18.5898C22.7425 18.5972 22.7423 18.6064 22.7438 18.6147C22.7731 18.7818 22.8231 18.9514 22.9236 19.0477C23.0347 19.1533 23.1455 19.1282 23.2852 19.0745C24.0567 18.6766 25.0704 18.5688 25.844 18.5188C26.459 18.4793 27.0389 18.5592 27.5899 18.7903C27.9236 18.9039 28.242 19.0546 28.532 19.2365C28.5354 19.2386 28.54 19.2411 28.545 19.2424C28.6726 19.2808 28.7963 19.3275 28.9209 19.3757C28.9247 19.3766 28.9284 19.3776 28.9321 19.3785C29.4635 19.4766 30.1682 19.4767 30.3201 18.6338L30.3188 18.6335Z" fill="black"/>
<path d="M35.661 19.939C35.6799 19.9081 35.7029 19.8808 35.7251 19.852C36.0857 19.6937 36.4534 19.578 36.8173 19.5314C37.4139 19.4557 38.0101 19.5172 38.5875 19.6532C39.2976 19.8197 39.9509 20.1503 40.5104 20.5948C40.5104 20.5948 40.5122 20.5962 40.514 20.5977C40.516 20.5991 40.518 20.6007 40.518 20.6007C40.518 20.6007 40.5187 20.6015 40.5198 20.6024C40.5208 20.6034 40.5222 20.6044 40.5234 20.6047C41.4046 21.4608 42.2327 23.1872 41.5383 24.3452C41.5336 24.3519 41.5288 24.3587 41.5216 24.3648C41.3845 24.4758 41.2273 24.578 41.0845 24.5938C40.9977 24.6034 40.9378 24.5818 40.8897 24.54C40.8502 24.5057 40.8186 24.4577 40.7867 24.4021C40.5251 23.7821 40.0037 23.2156 39.5155 22.7611C39.4064 22.6595 39.2989 22.5635 39.1963 22.4738C38.7492 22.0823 38.2462 21.8038 37.662 21.6594C37.3264 21.552 36.9758 21.4804 36.6269 21.4515C36.6219 21.4503 36.6182 21.4493 36.6132 21.4481C36.4887 21.4038 36.3607 21.3667 36.2311 21.3304C36.2274 21.3295 36.2237 21.3285 36.2203 21.3264C36.072 21.2533 35.9174 21.163 35.7886 21.0511C35.5026 20.8026 35.3438 20.4476 35.6639 19.9384L35.661 19.939Z" fill="black"/>
<path d="M36.6461 35.3982C36.4509 35.2285 36.138 35.1434 35.673 35.1768C34.7663 35.2412 34.3321 37.0384 31.8351 36.9229C30.1057 36.843 26.2929 36.2238 24.1347 34.2464C22.8292 33.0502 21.9327 31.5897 21.0753 30.8441C20.5621 30.3978 20.0629 30.2077 19.4984 30.4837C18.2331 31.1032 18.9279 34.0851 18.9421 35.2613C18.9822 38.6592 20.0777 40.9586 21.6985 42.3678C25.5683 45.7324 32.4327 44.0231 35.0792 40.077C35.654 39.2198 37.6237 36.248 36.6461 35.3982ZM26.6506 42.0612C26.609 42.0878 26.561 42.1088 26.5088 42.1262C26.4909 42.1323 26.4733 42.1371 26.4558 42.142C26.3814 42.1618 26.3002 42.1732 26.2118 42.1776C26.1682 42.1799 26.1212 42.1801 26.0743 42.1803C25.3407 42.1651 24.2591 41.7541 23.5686 41.265C23.5258 41.2347 23.4802 41.1998 23.4321 41.1606C23.3984 41.1331 23.3636 41.1036 23.3277 41.0721C23.308 41.0548 23.2879 41.0368 23.2675 41.0183C23.2553 41.0072 23.243 40.9959 23.2306 40.9844C23.204 40.9597 23.1769 40.9341 23.1494 40.9076C23.0744 40.8352 22.9967 40.7564 22.9178 40.6723C22.8369 40.5861 22.7535 40.4953 22.6699 40.4005C22.0448 39.6887 21.3978 38.7549 21.2766 38.1608C21.2606 38.0816 21.2535 38.0085 21.2577 37.9422C21.2718 37.712 21.4167 37.5712 21.748 37.5785C22.7001 37.5986 24.3669 38.6382 25.4613 39.589C25.8436 39.9212 26.1561 40.2425 26.3437 40.5057C26.643 40.925 26.7998 41.2533 26.8465 41.5039C26.8553 41.5497 26.8598 41.5917 26.8606 41.6329C26.8612 41.6528 26.8618 41.6728 26.8599 41.6921C26.8578 41.7299 26.8523 41.7655 26.8446 41.7992C26.8147 41.9146 26.7477 42.0022 26.6499 42.0636L26.6506 42.0612Z" fill="black"/>
<path fill-rule="evenodd" clip-rule="evenodd" d="M29.1532 26.1394L29.1531 26.1354C29.2254 25.1102 28.9511 23.9959 28.4656 23.0945C28.2075 22.6155 27.8876 22.1937 27.5216 21.8833C27.2046 21.6141 26.8523 21.4298 26.4702 21.3649C26.4557 21.364 26.442 21.3606 26.4251 21.359C25.6032 21.2425 24.672 21.6851 23.8495 22.3727C23.0194 23.0677 22.2939 24.0251 21.9312 25.0055L21.9313 25.0095C21.3379 26.7168 21.7296 28.3859 22.8382 29.3499C23.2905 29.7432 23.862 30.0191 24.5346 30.1325C24.5511 30.1353 24.569 30.1384 24.5859 30.14C26.914 30.4748 28.927 28.6368 29.1524 26.1378L29.1532 26.1394ZM25.6492 25.9827C25.3168 25.9996 25.0125 25.8838 24.7742 25.6768C24.4574 25.4015 24.2571 24.9649 24.2618 24.4642C24.2701 23.5868 24.9048 22.8432 25.6805 22.8041C26.0129 22.7873 26.3172 22.903 26.5555 23.1101C26.8723 23.3854 27.0726 23.822 27.0679 24.3227C27.0595 25.2001 26.4249 25.9437 25.6492 25.9827Z" fill="black"/>
<path fill-rule="evenodd" clip-rule="evenodd" d="M38.8316 29.4951L38.8328 29.4914C39.0198 28.5159 38.8918 27.4184 38.5427 26.5047C38.3564 26.0185 38.1069 25.5813 37.8007 25.2461C37.7336 25.1725 37.6637 25.1038 37.591 25.0406C37.3769 24.8543 37.1388 24.7159 36.8777 24.641C36.864 24.6376 36.8515 24.6345 36.8366 24.6307C36.0819 24.4347 35.1589 24.7631 34.3107 25.3373C33.4537 25.9186 32.6626 26.7619 32.211 27.6648L32.2099 27.6685C31.3877 29.3894 31.6687 31.1876 32.8274 32.1952C33.1632 32.4871 33.5726 32.7127 34.0501 32.8507C34.0651 32.8545 34.0813 32.8585 34.0975 32.8625C36.2358 33.4234 38.3323 31.869 38.8329 29.4954L38.8316 29.4951ZM37.1058 28.3385C36.6036 29.0478 35.7044 29.3201 35.0972 28.9482C34.4905 28.5751 34.4049 27.6981 34.9071 26.9888C35.4094 26.2794 36.3086 26.0071 36.9157 26.379C37.5225 26.7521 37.6081 27.6292 37.1058 28.3385Z" fill="black"/>
<path d="M13.3768 16.3633C14.9306 11.281 20.3705 8.20323 25.5273 9.48894L44.6644 14.2603C46.1545 14.6318 47.4578 15.327 48.5205 16.2505C51.1354 18.5227 52.2928 22.1769 51.188 25.7906L45.1435 45.5611C43.5896 50.6434 38.1497 53.7211 32.993 52.4354L13.8559 47.664C12.3658 47.2925 11.0624 46.5973 9.99972 45.6739C7.38484 43.4016 6.22745 39.7475 7.33228 36.1338L13.3768 16.3633Z" fill="#FFB580"/>
<path d="M30.3188 18.6335C30.3256 18.5982 30.3267 18.5641 30.3293 18.5292C30.1595 18.195 29.9564 17.8908 29.708 17.6427C29.6482 17.5829 29.5864 17.5254 29.5227 17.4701C29.1519 17.1475 28.7193 16.8984 28.2588 16.699C27.5956 16.4095 26.8644 16.2814 26.1251 16.2978L26.1157 16.298C26.1157 16.298 26.1103 16.298 26.1087 16.299C24.8374 16.4428 23.0069 17.2898 22.7447 18.5898C22.7425 18.5972 22.7423 18.6064 22.7438 18.6147C22.7731 18.7818 22.8231 18.9514 22.9236 19.0477C23.0347 19.1533 23.1455 19.1282 23.2852 19.0745C24.0567 18.6766 25.0704 18.5688 25.844 18.5188C26.459 18.4793 27.0389 18.5592 27.5899 18.7903C27.9236 18.9039 28.242 19.0546 28.532 19.2365C28.5354 19.2386 28.54 19.2411 28.545 19.2424C28.6726 19.2808 28.7963 19.3275 28.9209 19.3757C28.9247 19.3766 28.9284 19.3776 28.9321 19.3785C29.4635 19.4766 30.1682 19.4767 30.3201 18.6338L30.3188 18.6335Z" fill="black"/>
<path d="M35.661 19.939C35.6799 19.9081 35.7029 19.8808 35.7251 19.852C36.0857 19.6937 36.4534 19.578 36.8173 19.5314C37.4139 19.4557 38.0101 19.5172 38.5875 19.6532C39.2976 19.8197 39.9509 20.1503 40.5104 20.5948C40.5104 20.5948 40.5122 20.5962 40.514 20.5977C40.516 20.5991 40.518 20.6007 40.518 20.6007C40.518 20.6007 40.5187 20.6015 40.5198 20.6024C40.5208 20.6034 40.5222 20.6044 40.5234 20.6047C41.4046 21.4608 42.2327 23.1872 41.5383 24.3452C41.5336 24.3519 41.5288 24.3587 41.5216 24.3648C41.3845 24.4758 41.2273 24.578 41.0845 24.5938C40.9977 24.6034 40.9378 24.5818 40.8897 24.54C40.8502 24.5057 40.8186 24.4577 40.7867 24.4021C40.5251 23.7821 40.0037 23.2156 39.5155 22.7611C39.4064 22.6595 39.2989 22.5635 39.1963 22.4738C38.7492 22.0823 38.2462 21.8038 37.662 21.6594C37.3264 21.552 36.9758 21.4804 36.6269 21.4515C36.6219 21.4503 36.6182 21.4493 36.6132 21.4481C36.4887 21.4038 36.3607 21.3667 36.2311 21.3304C36.2274 21.3295 36.2237 21.3285 36.2203 21.3264C36.072 21.2533 35.9174 21.163 35.7886 21.0511C35.5026 20.8026 35.3438 20.4476 35.6639 19.9384L35.661 19.939Z" fill="black"/>
<path d="M36.6461 35.3982C36.4509 35.2285 36.138 35.1434 35.673 35.1768C34.7663 35.2412 34.3321 37.0384 31.8351 36.9229C30.1057 36.843 26.2929 36.2238 24.1347 34.2464C22.8292 33.0502 21.9327 31.5897 21.0753 30.8441C20.5621 30.3978 20.0629 30.2077 19.4984 30.4837C18.2331 31.1032 18.9279 34.0851 18.9421 35.2613C18.9822 38.6592 20.0777 40.9586 21.6985 42.3678C25.5683 45.7324 32.4327 44.0231 35.0792 40.077C35.654 39.2198 37.6237 36.248 36.6461 35.3982ZM26.6506 42.0612C26.609 42.0878 26.561 42.1088 26.5088 42.1262C26.4909 42.1323 26.4733 42.1371 26.4558 42.142C26.3814 42.1618 26.3002 42.1732 26.2118 42.1776C26.1682 42.1799 26.1212 42.1801 26.0743 42.1803C25.3407 42.1651 24.2591 41.7541 23.5686 41.265C23.5258 41.2347 23.4802 41.1998 23.4321 41.1606C23.3984 41.1331 23.3636 41.1036 23.3277 41.0721C23.308 41.0548 23.2879 41.0368 23.2675 41.0183C23.2553 41.0072 23.243 40.9959 23.2306 40.9844C23.204 40.9597 23.1769 40.9341 23.1494 40.9076C23.0744 40.8352 22.9967 40.7564 22.9178 40.6723C22.8369 40.5861 22.7535 40.4953 22.6699 40.4005C22.0448 39.6887 21.3978 38.7549 21.2766 38.1608C21.2606 38.0816 21.2535 38.0085 21.2577 37.9422C21.2718 37.712 21.4167 37.5712 21.748 37.5785C22.7001 37.5986 24.3669 38.6382 25.4613 39.589C25.8436 39.9212 26.1561 40.2425 26.3437 40.5057C26.643 40.925 26.7998 41.2533 26.8465 41.5039C26.8553 41.5497 26.8598 41.5917 26.8606 41.6329C26.8612 41.6528 26.8618 41.6728 26.8599 41.6921C26.8578 41.7299 26.8523 41.7655 26.8446 41.7992C26.8147 41.9146 26.7477 42.0022 26.6499 42.0636L26.6506 42.0612Z" fill="black"/>
<path fill-rule="evenodd" clip-rule="evenodd" d="M29.1532 26.1394L29.1531 26.1354C29.2254 25.1102 28.9511 23.9959 28.4656 23.0945C28.2075 22.6155 27.8876 22.1937 27.5216 21.8833C27.2046 21.6141 26.8523 21.4298 26.4702 21.3649C26.4557 21.364 26.442 21.3606 26.4251 21.359C25.6032 21.2425 24.672 21.6851 23.8495 22.3727C23.0194 23.0677 22.2939 24.0251 21.9312 25.0055L21.9313 25.0095C21.3379 26.7168 21.7296 28.3859 22.8382 29.3499C23.2905 29.7432 23.862 30.0191 24.5346 30.1325C24.5511 30.1353 24.569 30.1384 24.5859 30.14C26.914 30.4748 28.927 28.6368 29.1524 26.1378L29.1532 26.1394ZM25.6492 25.9827C25.3168 25.9996 25.0125 25.8838 24.7742 25.6768C24.4574 25.4015 24.2571 24.9649 24.2618 24.4642C24.2701 23.5868 24.9048 22.8432 25.6805 22.8041C26.0129 22.7873 26.3172 22.903 26.5555 23.1101C26.8723 23.3854 27.0726 23.822 27.0679 24.3227C27.0595 25.2001 26.4249 25.9437 25.6492 25.9827Z" fill="black"/>
<path fill-rule="evenodd" clip-rule="evenodd" d="M38.8316 29.4951L38.8328 29.4914C39.0198 28.5159 38.8918 27.4184 38.5427 26.5047C38.3564 26.0185 38.1069 25.5813 37.8007 25.2461C37.7336 25.1725 37.6637 25.1038 37.591 25.0406C37.3769 24.8543 37.1388 24.7159 36.8777 24.641C36.864 24.6376 36.8515 24.6345 36.8366 24.6307C36.0819 24.4347 35.1589 24.7631 34.3107 25.3373C33.4537 25.9186 32.6626 26.7619 32.211 27.6648L32.2099 27.6685C31.3877 29.3894 31.6687 31.1876 32.8274 32.1952C33.1632 32.4871 33.5726 32.7127 34.0501 32.8507C34.0651 32.8545 34.0813 32.8585 34.0975 32.8625C36.2358 33.4234 38.3323 31.869 38.8329 29.4954L38.8316 29.4951ZM37.1058 28.3385C36.6036 29.0478 35.7044 29.3201 35.0972 28.9482C34.4905 28.5751 34.4049 27.6981 34.9071 26.9888C35.4094 26.2794 36.3086 26.0071 36.9157 26.379C37.5225 26.7521 37.6081 27.6292 37.1058 28.3385Z" fill="black"/>
<path d="M13.3768 16.3633C14.9306 11.281 20.3705 8.20323 25.5273 9.48894L44.6644 14.2603C46.1545 14.6318 47.4578 15.327 48.5205 16.2505C51.1354 18.5227 52.2928 22.1769 51.188 25.7906L45.1435 45.5611C43.5896 50.6434 38.1497 53.7211 32.993 52.4354L13.8559 47.664C12.3658 47.2925 11.0624 46.5973 9.99972 45.6739C7.38484 43.4016 6.22745 39.7475 7.33228 36.1338L13.3768 16.3633Z" fill="#FFB580"/>
<path d="M30.3188 18.6335C30.3256 18.5982 30.3267 18.5641 30.3293 18.5292C30.1595 18.195 29.9564 17.8908 29.708 17.6427C29.6482 17.5829 29.5864 17.5254 29.5227 17.4701C29.1519 17.1475 28.7193 16.8984 28.2588 16.699C27.5956 16.4095 26.8644 16.2814 26.1251 16.2978L26.1157 16.298C26.1157 16.298 26.1103 16.298 26.1087 16.299C24.8374 16.4428 23.0069 17.2898 22.7447 18.5898C22.7425 18.5972 22.7423 18.6064 22.7438 18.6147C22.7731 18.7818 22.8231 18.9514 22.9236 19.0477C23.0347 19.1533 23.1455 19.1282 23.2852 19.0745C24.0567 18.6766 25.0704 18.5688 25.844 18.5188C26.459 18.4793 27.0389 18.5592 27.5899 18.7903C27.9236 18.9039 28.242 19.0546 28.532 19.2365C28.5354 19.2386 28.54 19.2411 28.545 19.2424C28.6726 19.2808 28.7963 19.3275 28.9209 19.3757C28.9247 19.3766 28.9284 19.3776 28.9321 19.3785C29.4635 19.4766 30.1682 19.4767 30.3201 18.6338L30.3188 18.6335Z" fill="black"/>
<path d="M35.661 19.939C35.6799 19.9081 35.7029 19.8808 35.7251 19.852C36.0857 19.6937 36.4534 19.578 36.8173 19.5314C37.4139 19.4557 38.0101 19.5172 38.5875 19.6532C39.2976 19.8197 39.9509 20.1503 40.5104 20.5948C40.5104 20.5948 40.5122 20.5962 40.514 20.5977C40.516 20.5991 40.518 20.6007 40.518 20.6007C40.518 20.6007 40.5187 20.6015 40.5198 20.6024C40.5208 20.6034 40.5222 20.6044 40.5234 20.6047C41.4046 21.4608 42.2327 23.1872 41.5383 24.3452C41.5336 24.3519 41.5288 24.3587 41.5216 24.3648C41.3845 24.4758 41.2273 24.578 41.0845 24.5938C40.9977 24.6034 40.9378 24.5818 40.8897 24.54C40.8502 24.5057 40.8186 24.4577 40.7867 24.4021C40.5251 23.7821 40.0037 23.2156 39.5155 22.7611C39.4064 22.6595 39.2989 22.5635 39.1963 22.4738C38.7492 22.0823 38.2462 21.8038 37.662 21.6594C37.3264 21.552 36.9758 21.4804 36.6269 21.4515C36.6219 21.4503 36.6182 21.4493 36.6132 21.4481C36.4887 21.4038 36.3607 21.3667 36.2311 21.3304C36.2274 21.3295 36.2237 21.3285 36.2203 21.3264C36.072 21.2533 35.9174 21.163 35.7886 21.0511C35.5026 20.8026 35.3438 20.4476 35.6639 19.9384L35.661 19.939Z" fill="black"/>
<path d="M36.6461 35.3982C36.4509 35.2285 36.138 35.1434 35.673 35.1768C34.7663 35.2412 34.3321 37.0384 31.8351 36.9229C30.1057 36.843 26.2929 36.2238 24.1347 34.2464C22.8292 33.0502 21.9327 31.5897 21.0753 30.8441C20.5621 30.3978 20.0629 30.2077 19.4984 30.4837C18.2331 31.1032 18.9279 34.0851 18.9421 35.2613C18.9822 38.6592 20.0777 40.9586 21.6985 42.3678C25.5683 45.7324 32.4327 44.0231 35.0792 40.077C35.654 39.2198 37.6237 36.248 36.6461 35.3982ZM26.6506 42.0612C26.609 42.0878 26.561 42.1088 26.5088 42.1262C26.4909 42.1323 26.4733 42.1371 26.4558 42.142C26.3814 42.1618 26.3002 42.1732 26.2118 42.1776C26.1682 42.1799 26.1212 42.1801 26.0743 42.1803C25.3407 42.1651 24.2591 41.7541 23.5686 41.265C23.5258 41.2347 23.4802 41.1998 23.4321 41.1606C23.3984 41.1331 23.3636 41.1036 23.3277 41.0721C23.308 41.0548 23.2879 41.0368 23.2675 41.0183C23.2553 41.0072 23.243 40.9959 23.2306 40.9844C23.204 40.9597 23.1769 40.9341 23.1494 40.9076C23.0744 40.8352 22.9967 40.7564 22.9178 40.6723C22.8369 40.5861 22.7535 40.4953 22.6699 40.4005C22.0448 39.6887 21.3978 38.7549 21.2766 38.1608C21.2606 38.0816 21.2535 38.0085 21.2577 37.9422C21.2718 37.712 21.4167 37.5712 21.748 37.5785C22.7001 37.5986 24.3669 38.6382 25.4613 39.589C25.8436 39.9212 26.1561 40.2425 26.3437 40.5057C26.643 40.925 26.7998 41.2533 26.8465 41.5039C26.8553 41.5497 26.8598 41.5917 26.8606 41.6329C26.8612 41.6528 26.8618 41.6728 26.8599 41.6921C26.8578 41.7299 26.8523 41.7655 26.8446 41.7992C26.8147 41.9146 26.7477 42.0022 26.6499 42.0636L26.6506 42.0612Z" fill="black"/>
<path fill-rule="evenodd" clip-rule="evenodd" d="M29.1532 26.1394L29.1531 26.1354C29.2254 25.1102 28.9511 23.9959 28.4656 23.0945C28.2075 22.6155 27.8876 22.1937 27.5216 21.8833C27.2046 21.6141 26.8523 21.4298 26.4702 21.3649C26.4557 21.364 26.442 21.3606 26.4251 21.359C25.6032 21.2425 24.672 21.6851 23.8495 22.3727C23.0194 23.0677 22.2939 24.0251 21.9312 25.0055L21.9313 25.0095C21.3379 26.7168 21.7296 28.3859 22.8382 29.3499C23.2905 29.7432 23.862 30.0191 24.5346 30.1325C24.5511 30.1353 24.569 30.1384 24.5859 30.14C26.914 30.4748 28.927 28.6368 29.1524 26.1378L29.1532 26.1394ZM25.6492 25.9827C25.3168 25.9996 25.0125 25.8838 24.7742 25.6768C24.4574 25.4015 24.2571 24.9649 24.2618 24.4642C24.2701 23.5868 24.9048 22.8432 25.6805 22.8041C26.0129 22.7873 26.3172 22.903 26.5555 23.1101C26.8723 23.3854 27.0726 23.822 27.0679 24.3227C27.0595 25.2001 26.4249 25.9437 25.6492 25.9827Z" fill="black"/>
<path fill-rule="evenodd" clip-rule="evenodd" d="M38.8316 29.4951L38.8328 29.4914C39.0198 28.5159 38.8918 27.4184 38.5427 26.5047C38.3564 26.0185 38.1069 25.5813 37.8007 25.2461C37.7336 25.1725 37.6637 25.1038 37.591 25.0406C37.3769 24.8543 37.1388 24.7159 36.8777 24.641C36.864 24.6376 36.8515 24.6345 36.8366 24.6307C36.0819 24.4347 35.1589 24.7631 34.3107 25.3373C33.4537 25.9186 32.6626 26.7619 32.211 27.6648L32.2099 27.6685C31.3877 29.3894 31.6687 31.1876 32.8274 32.1952C33.1632 32.4871 33.5726 32.7127 34.0501 32.8507C34.0651 32.8545 34.0813 32.8585 34.0975 32.8625C36.2358 33.4234 38.3323 31.869 38.8329 29.4954L38.8316 29.4951ZM37.1058 28.3385C36.6036 29.0478 35.7044 29.3201 35.0972 28.9482C34.4905 28.5751 34.4049 27.6981 34.9071 26.9888C35.4094 26.2794 36.3086 26.0071 36.9157 26.379C37.5225 26.7521 37.6081 27.6292 37.1058 28.3385Z" fill="black"/>
<path d="M8.78638 43.5719L4.19727 35.7778" stroke="#B35714" stroke-width="0.891004"/>
<path d="M50.4251 19.3893L45.8359 11.5952" stroke="#B35714" stroke-width="0.891004"/>
<rect width="38.9687" height="39.9194" rx="9.62284" transform="matrix(0.970296 0.24192 -0.292374 0.956304 16.1885 7.16113)" fill="#F38332"/>
<g clip-path="url(#clip0_192_18886)">
<path d="M30.3972 19.667C30.4037 19.6335 30.4046 19.6011 30.4072 19.5678C30.2458 19.2504 30.0529 18.9614 29.8169 18.7257C29.4289 18.3379 28.9527 18.0511 28.4401 17.8292C27.8101 17.5542 27.1155 17.4324 26.4132 17.448L26.4042 17.4483C26.4042 17.4483 26.3991 17.4483 26.3976 17.4491C25.1899 17.5858 23.4508 18.3904 23.2018 19.6255C23.1997 19.6325 23.1995 19.6412 23.2009 19.6491C23.2288 19.8078 23.2763 19.969 23.3717 20.0605C23.4772 20.1608 23.5826 20.1369 23.7153 20.0859C24.4482 19.7079 25.4112 19.6055 26.1462 19.558C26.7304 19.5205 27.2813 19.5964 27.8047 19.8159C28.1218 19.9238 28.4242 20.067 28.6998 20.2398C28.703 20.2419 28.7073 20.2442 28.7121 20.2454C28.8333 20.2819 28.9508 20.3262 29.0692 20.3721C29.0727 20.3729 29.0763 20.3738 29.0798 20.3747C29.5846 20.468 30.2541 20.468 30.3984 19.6673L30.3972 19.667Z" fill="#53240A"/>
<path d="M35.4723 20.9071C35.4902 20.8777 35.5121 20.8518 35.5332 20.8244C35.8758 20.674 36.225 20.5641 36.5708 20.5199C37.1376 20.4479 37.7039 20.5063 38.2525 20.6356C38.9271 20.7937 39.5477 21.1078 40.0792 21.5301L40.0864 21.5357C40.0864 21.5357 40.0892 21.5389 40.0916 21.5395C40.9287 22.3528 41.7154 23.9929 41.0557 25.0929C41.0512 25.0993 41.0467 25.1057 41.0399 25.1116C40.9096 25.2171 40.7603 25.3141 40.6246 25.3292C40.4744 25.3457 40.409 25.2641 40.3417 25.147C40.0376 24.4264 39.3641 23.7817 38.8309 23.3151C38.4061 22.9432 37.9283 22.6786 37.3732 22.5415C37.0544 22.4394 36.7213 22.3714 36.3899 22.3439C36.3851 22.3428 36.3816 22.3419 36.3769 22.3407C36.2586 22.2987 36.137 22.2633 36.0139 22.2289C36.0104 22.228 36.0068 22.2271 36.0036 22.2251C35.5501 22.0016 35.0339 21.6082 35.475 20.9065L35.4723 20.9071Z" fill="#53240A"/>
<path d="M35.4816 35.3832C34.6203 35.4444 34.2077 37.1517 31.8356 37.042C30.1927 36.9661 26.5705 36.3779 24.5203 34.4993C22.5376 32.6828 21.5479 30.2244 20.1157 30.9248C18.9137 31.5133 19.5737 34.3461 19.5872 35.4635C19.7164 46.3984 31.3502 45.3574 34.9175 40.0384C35.5726 39.0614 38.1351 35.1929 35.4816 35.3832ZM26.9104 41.9234C26.8708 41.9486 26.8252 41.9686 26.7756 41.9851C26.7586 41.9909 26.7419 41.9955 26.7252 42.0002C26.6546 42.0189 26.5774 42.0298 26.4934 42.0339C26.452 42.0362 26.4074 42.0363 26.3628 42.0365C25.6659 42.0221 24.6384 41.6316 23.9824 41.167C23.8977 41.107 23.801 41.0277 23.6964 40.9326C23.5918 40.8375 23.4793 40.7267 23.3641 40.6039C23.2873 40.522 23.2081 40.4358 23.1287 40.3457C22.5348 39.6695 21.9201 38.7824 21.805 38.218C21.7898 38.1427 21.783 38.0733 21.787 38.0103C21.8004 37.7916 21.9381 37.6578 22.2529 37.6648C23.4733 37.6906 25.9302 39.4799 26.6188 40.4457C26.9031 40.8439 27.0521 41.1558 27.0964 41.3939C27.1047 41.4374 27.1091 41.4774 27.1099 41.5165C27.1104 41.5354 27.111 41.5544 27.1092 41.5728C27.1071 41.6086 27.1019 41.6424 27.0946 41.6745C27.0662 41.7841 27.0026 41.8673 26.9096 41.9257L26.9104 41.9234Z" fill="#53240A"/>
<path fill-rule="evenodd" clip-rule="evenodd" d="M29.2887 26.7976C29.2887 26.7976 29.2894 26.7952 29.2886 26.7938C29.3573 25.8199 29.0966 24.7613 28.6355 23.905C28.3902 23.4499 28.0863 23.0492 27.7386 22.7543C27.4375 22.4986 27.1028 22.3235 26.7398 22.2619C26.7261 22.261 26.7131 22.2577 26.697 22.2562C25.9162 22.1456 25.0316 22.5661 24.2502 23.2193C23.4615 23.8795 22.7723 24.789 22.4277 25.7205C22.4274 25.7216 22.427 25.7228 22.4278 25.7243C21.6342 28.0078 22.6955 30.2193 24.901 30.5911C24.9167 30.5937 24.9336 30.5967 24.9497 30.5982C27.1614 30.9163 29.0738 29.1701 29.2879 26.7961L29.2887 26.7976ZM25.9599 26.6488C25.2242 26.6862 24.634 26.0397 24.6419 25.2062C24.6498 24.3727 25.2527 23.6662 25.9896 23.6291C26.7252 23.5918 27.3155 24.2382 27.3076 25.0717C27.2997 25.9052 26.6968 26.6117 25.9599 26.6488Z" fill="#53240A"/>
<path fill-rule="evenodd" clip-rule="evenodd" d="M38.4845 29.9853C38.4845 29.9853 38.4852 29.9829 38.4856 29.9818C38.6632 29.0551 38.5416 28.0124 38.21 27.1444C38.033 26.6825 37.796 26.2672 37.5051 25.9488C37.2535 25.6728 36.9605 25.4693 36.6282 25.3739C36.6152 25.3706 36.6034 25.3677 36.5892 25.3641C35.8723 25.1779 34.9953 25.4899 34.1896 26.0354C33.3754 26.5876 32.6239 27.3887 32.1949 28.2465C32.1946 28.2477 32.1942 28.2488 32.1938 28.25C31.1864 30.3585 31.9224 32.5893 33.9421 33.1731C33.9563 33.1767 33.9716 33.1805 33.987 33.1843C36.0185 33.7172 38.0101 32.2405 38.4857 29.9855L38.4845 29.9853ZM36.845 28.8865C36.3678 29.5604 35.5136 29.8191 34.9368 29.4658C34.3604 29.1113 34.2791 28.2781 34.7562 27.6043C35.2333 26.9304 36.0876 26.6717 36.6644 27.025C37.2408 27.3795 37.3221 28.2126 36.845 28.8865Z" fill="#53240A"/>
</g>
<defs>
<clipPath id="clip0_192_18886">
<rect width="18.7515" height="25.9916" fill="white" transform="matrix(0.970296 0.24192 -0.292374 0.956304 24.0928 16.6826)"/>
</clipPath>
</defs>
</svg>
